# xmcd
#
# Track frame offsets:
# 150
# 13055
# 27410
# 47445
# 67022
# 88402
# 112747
# 127240
# 144707
# 164932
# 182927
#
# Disc length: 2716 seconds
#
#
# Revision: 0
# Processed by: cddbd v1.5.2PL0 Copyright (c) Steve Scherf et al.
# Submitted via: Nero 7, 2, 3, 2 
#
DISCID=a70a9a0b
DTITLE=Plain Loco - river road
DYEAR=1997
DGENRE=Country
TTITLE0=hot dog
TTITLE1=and then some
TTITLE2=river road
TTITLE3=silver shadow
TTITLE4=empty dreams
TTITLE5=not missing you
TTITLE6=the forgetter
TTITLE7=empty canvas
TTITLE8=our eyes are wide open
TTITLE9=woke up to soon
TTITLE10=another bad dream
EXTD=
EXTT0=
EXTT1=
EXTT2=
EXTT3=
EXTT4=
EXTT5=
EXTT6=
EXTT7=
EXTT8=
EXTT9=
EXTT10=
PLAYORDER=
